<?xml version="1.0" standalone="no"?>
<!DOCTYPE svg PUBLIC "-//W3C//DTD SVG 20010904//EN"
 "http://www.w3.org/TR/2001/REC-SVG-20010904/DTD/svg10.dtd">
<svg version="1.0" xmlns="http://www.w3.org/2000/svg"
 width="574.000000pt" height="372.000000pt" viewBox="0 0 574.000000 372.000000"
 preserveAspectRatio="xMidYMid meet">

<g transform="translate(0.000000,372.000000) scale(0.100000,-0.100000)"
fill="#000000" stroke="none">
<path d="M4850 3619 c0 -61 27 -230 54 -344 14 -55 23 -101 21 -103 -2 -2 -66
-5 -142 -7 -163 -3 -256 -24 -380 -85 -211 -104 -374 -296 -454 -535 -23 -69
-23 -77 -27 -582 l-3 -513 250 0 251 0 0 308 c1 430 12 636 40 701 39 90 143
164 269 193 113 25 270 -32 493 -180 232 -154 279 -152 139 6 -79 91 -111 134
-105 143 6 10 85 -19 229 -84 129 -58 182 -74 196 -60 15 15 1 38 -67 115 -73
83 -165 221 -219 328 -48 95 -114 189 -211 300 -36 41 -106 136 -156 210 -110
163 -159 230 -170 230 -4 0 -8 -19 -8 -41z m451 -736 c21 -24 39 -47 39 -53 0
-15 -47 -12 -79 5 -31 15 -77 97 -66 115 9 15 59 -17 106 -67z"/>
<path d="M2848 2190 c-133 -24 -313 -106 -415 -190 -149 -123 -239 -278 -277
-477 l-14 -73 232 0 232 0 32 66 c70 142 181 218 322 218 60 1 85 -4 125 -23
73 -36 168 -136 193 -202 l20 -54 232 -3 232 -2 -7 56 c-9 74 -34 145 -89 252
-112 217 -279 346 -531 413 -83 22 -221 31 -287 19z"/>
<path d="M1294 1969 c-58 -14 -176 -77 -237 -128 -119 -102 -191 -218 -203
-328 l-7 -63 166 0 166 0 26 55 c15 30 41 66 59 80 73 55 194 72 264 36 35
-18 106 -88 143 -142 16 -23 21 -24 183 -27 143 -3 166 -1 166 12 0 8 -12 51
-26 96 -46 146 -156 279 -293 354 -105 56 -288 81 -407 55z"/>
<path d="M179 1776 c-46 -18 -119 -64 -119 -75 0 -5 48 -11 108 -13 152 -6
206 -38 267 -159 14 -26 35 -55 47 -63 29 -21 176 -22 203 -2 18 13 18 15 1
60 -26 68 -90 159 -133 189 -79 55 -132 71 -238 74 -67 2 -112 -2 -136 -11z"/>
<path d="M40 660 l0 -640 223 0 223 0 51 115 51 115 -157 2 -156 3 -3 523 -2
522 -115 0 -115 0 0 -640z"/>
<path d="M630 660 l0 -640 204 0 205 0 60 113 60 112 -145 3 -144 3 0 159 0
159 52 3 53 3 57 105 c32 58 58 108 58 113 0 4 -49 7 -110 7 l-110 0 0 135 0
135 84 0 85 0 58 107 c32 59 60 111 61 115 2 4 -116 8 -262 8 l-266 0 0 -640z"/>
<path d="M1185 1268 c3 -18 48 -294 100 -613 52 -319 98 -592 101 -608 l6 -27
107 0 108 0 93 563 c51 309 98 597 105 640 l12 77 -118 0 c-115 0 -119 -1
-124 -22 -2 -13 -20 -128 -39 -257 -19 -128 -37 -235 -39 -237 -2 -2 -18 101
-36 228 -18 128 -35 245 -38 261 l-5 27 -120 0 -119 0 6 -32z"/>
<path d="M1910 660 l0 -640 115 0 115 0 0 640 0 640 -115 0 -115 0 0 -640z"/>
<path d="M2455 1288 c-2 -7 -52 -283 -110 -613 -58 -330 -108 -612 -111 -627
l-6 -28 125 0 c146 0 129 -20 148 173 l12 127 47 0 c47 0 47 0 53 -37 3 -21
13 -89 22 -150 l17 -113 120 0 119 0 -6 33 c-34 195 -125 717 -160 927 -25
146 -48 277 -51 293 l-6 27 -104 0 c-75 0 -106 -4 -109 -12z m128 -705 c7 -63
7 -63 -20 -63 l-26 0 7 68 c4 37 10 85 13 107 l7 40 7 -45 c3 -25 9 -73 12
-107z"/>
<path d="M2910 1185 l0 -115 100 0 100 0 0 -525 0 -525 120 0 120 0 0 525 0
525 95 0 95 0 0 115 0 115 -315 0 -315 0 0 -115z"/>
<path d="M3630 660 l0 -640 115 0 115 0 0 260 0 260 30 0 30 0 0 -260 0 -260
115 0 115 0 0 640 0 640 -115 0 -115 0 0 -260 0 -260 -30 0 -30 0 0 260 0 260
-115 0 -115 0 0 -640z"/>
<path d="M4480 1293 c0 -3 -49 -284 -110 -625 -60 -340 -110 -625 -110 -633 0
-12 21 -15 124 -15 l123 0 12 107 c6 60 14 127 17 151 l6 43 46 -3 46 -3 21
-142 c12 -79 24 -145 27 -148 3 -3 57 -4 120 -3 l115 3 -53 300 c-29 165 -78
452 -110 638 l-58 337 -108 0 c-59 0 -108 -3 -108 -7z m126 -678 l9 -95 -28 0
c-25 0 -28 3 -24 23 3 12 9 55 13 95 3 39 10 72 14 72 4 0 11 -43 16 -95z"/>
<path d="M5010 660 l0 -640 110 0 110 0 1 208 c1 234 -3 237 59 -55 l33 -153
103 0 104 0 0 640 0 640 -110 0 -110 0 -1 -232 c-1 -139 -4 -219 -9 -198 -4
19 -25 124 -45 233 l-37 197 -104 0 -104 0 0 -640z"/>
</g>
</svg>
